<?xml version="1.0" encoding="UTF-8" standalone="no"?>
<!-- Created with Inkscape (http://www.inkscape.org/) -->

<svg
   width="26.458334mm"
   height="25.582479mm"
   viewBox="0 0 26.458335 25.582479"
   version="1.1"
   id="svg1"
   xml:space="preserve"
   sodipodi:docname="fediverse.svg"
   inkscape:export-filename="fediverse_symbol_white_vector.svg"
   inkscape:export-xdpi="31.771744"
   inkscape:export-ydpi="31.771744"
   inkscape:version="1.4 (e7c3feb100, 2024-10-09)"
   xmlns:inkscape="http://www.inkscape.org/namespaces/inkscape"
   xmlns:sodipodi="http://sodipodi.sourceforge.net/DTD/sodipodi-0.dtd"
   xmlns="http://www.w3.org/2000/svg"
   xmlns:svg="http://www.w3.org/2000/svg"><sodipodi:namedview
     id="namedview1"
     pagecolor="#ffffff"
     bordercolor="#000000"
     borderopacity="0.25"
     inkscape:showpageshadow="2"
     inkscape:pageopacity="0.0"
     inkscape:pagecheckerboard="0"
     inkscape:deskcolor="#d1d1d1"
     inkscape:document-units="mm"
     inkscape:zoom="5.850525"
     inkscape:cx="85.804266"
     inkscape:cy="52.132074"
     inkscape:window-width="1920"
     inkscape:window-height="1011"
     inkscape:window-x="0"
     inkscape:window-y="0"
     inkscape:window-maximized="1"
     inkscape:current-layer="svg1"><inkscape:page
       x="0"
       y="0"
       width="26.458336"
       height="25.582478"
       id="page2"
       margin="0"
       bleed="0" /></sodipodi:namedview><defs
     id="defs1" /><path
     id="path131"
     style="-inkscape-font-specification:'Fungal @grow=542,TCHK=321';fill:#ffffff;fill-opacity:1;stroke:none;stroke-width:0.529167;stroke-linecap:round;stroke-linejoin:miter;stroke-dasharray:none;stroke-opacity:1;paint-order:stroke fill markers"
     d="M 12.336091,0.29474824 V 1.061272 L 12.6511,6.0628987 8.476675,3.289555 7.8127928,2.9062931 6.900143,4.4868737 7.5640253,4.8701356 12.05345,7.0979115 7.5640253,9.3261873 6.900143,9.709449 7.8127928,11.290538 8.476675,10.907275 12.6511,8.1334241 12.336091,13.135051 v 0.766524 h 1.8253 V 13.135051 L 13.84639,8.1334241 18.020308,10.907275 18.68419,11.290538 19.59684,9.709449 18.932957,9.3261873 14.444546,7.0979115 18.932957,4.8701356 19.59684,4.4868737 18.68419,2.9062931 18.020308,3.289555 13.84639,6.0623917 14.161391,1.061272 V 0.29474824 Z M 5.7402395,11.718797 v 0.766524 l 0.315008,5.001119 -4.1739177,-2.773343 -0.6638822,-0.383263 -0.91264977,1.581082 0.66388223,0.383261 4.48891834,2.227776 -4.48891834,2.228283 -0.66388223,0.383262 0.91264977,1.581081 0.6638822,-0.383262 4.1739177,-2.773844 -0.315008,5.00162 v 0.766524 H 7.565539 v -0.766524 l -0.3144939,-5.00162 4.1739169,2.773844 0.663883,0.383262 0.912649,-1.581081 -0.663882,-0.383262 -4.4889252,-2.228283 4.4889252,-2.227776 0.663882,-0.383261 -0.912649,-1.581082 -0.663883,0.383263 -4.1739169,2.773343 0.3144939,-5.001119 v -0.766524 z m 13.1912035,0 v 0.766524 l 0.315002,5.001119 -4.173919,-2.773343 -0.663881,-0.383263 -0.91265,1.581082 0.663883,0.383261 4.488918,2.227776 -4.488918,2.228283 -0.663883,0.383262 0.91265,1.581081 0.663881,-0.383262 4.173919,-2.773844 -0.315002,5.00162 v 0.766524 h 1.8253 v -0.766524 l -0.314501,-5.00162 4.173918,2.773844 0.663882,0.383262 0.91265,-1.581081 -0.663881,-0.383262 -4.488919,-2.228283 4.488919,-2.227776 0.663881,-0.383261 -0.91265,-1.581082 -0.663882,0.383263 -4.173918,2.773343 0.314501,-5.001119 v -0.766524 z"
     inkscape:export-filename="path131.png"
     inkscape:export-xdpi="31.771744"
     inkscape:export-ydpi="31.771744" /></svg>
