<?xml version="1.0" encoding="UTF-8" standalone="no"?>
<svg
   xmlns:dc="http://purl.org/dc/elements/1.1/"
   xmlns:cc="http://creativecommons.org/ns#"
   xmlns:rdf="http://www.w3.org/1999/02/22-rdf-syntax-ns#"
   xmlns:svg="http://www.w3.org/2000/svg"
   xmlns="http://www.w3.org/2000/svg"
   xmlns:sodipodi="http://sodipodi.sourceforge.net/DTD/sodipodi-0.dtd"
   xmlns:inkscape="http://www.inkscape.org/namespaces/inkscape"
   viewBox="0 0 32 32"
   version="1.1"
   id="svg4"
   sodipodi:docname="mastodon.svg"
   inkscape:version="1.0.2 (e86c870879, 2021-01-15)">
  <metadata
     id="metadata10">
    <rdf:RDF>
      <cc:Work
         rdf:about="">
        <dc:format>image/svg+xml</dc:format>
        <dc:type
           rdf:resource="http://purl.org/dc/dcmitype/StillImage" />
      </cc:Work>
    </rdf:RDF>
  </metadata>
  <defs
     id="defs8" />
  <sodipodi:namedview
     pagecolor="#ffffff"
     bordercolor="#666666"
     borderopacity="1"
     objecttolerance="10"
     gridtolerance="10"
     guidetolerance="10"
     inkscape:pageopacity="0"
     inkscape:pageshadow="2"
     inkscape:window-width="1912"
     inkscape:window-height="1008"
     id="namedview6"
     showgrid="false"
     inkscape:zoom="26.9375"
     inkscape:cx="8.8538283"
     inkscape:cy="16"
     inkscape:window-x="4"
     inkscape:window-y="31"
     inkscape:window-maximized="0"
     inkscape:current-layer="svg4"
     inkscape:document-rotation="0" />
  <path
     d="m 16.072187,2.6935528 c -3.594406,0.013475 -7.1633197,0.4353158 -9.0203203,1.2267801 0,0 -3.9953439,1.6812431 -3.9953439,7.4079461 0,6.816824 -0.00535,15.377593 6.6193947,17.033122 2.5370875,0.630312 4.7189035,0.765975 6.4729685,0.672474 3.183259,-0.166104 4.757689,-1.067794 4.757689,-1.067794 l -0.106913,-2.174257 c 0,0 -2.063299,0.67213 -4.618237,0.595127 -2.531138,-0.0825 -5.197694,-0.258091 -5.613005,-3.179744 -0.03808,-0.271705 -0.05697,-0.546813 -0.05577,-0.820718 5.363346,1.230922 9.936771,0.536122 11.195794,0.39532 3.515271,-0.394907 6.575384,-2.432471 6.965705,-4.294805 0.611663,-2.934853 0.560138,-7.158725 0.560138,-7.158725 0,-5.726703 -3.988372,-7.4079461 -3.988372,-7.4079461 -1.958157,-0.8453653 -5.57932,-1.2402554 -9.173724,-1.2267801 z m -3.846594,4.3678527 c 1.231504,0.030526 2.448432,0.5398348 3.198135,1.6156544 l 0.725158,1.1386923 0.722834,-1.1386923 c 1.505355,-2.1637393 4.879275,-2.0287291 6.48459,-0.3544986 1.480364,1.5928292 1.150491,2.6208657 1.150491,9.7368957 v 0.0021 h -2.912254 v -6.191909 c 0,-2.8985526 -3.997669,-3.0104969 -3.997669,0.401765 v 3.587955 h -2.89366 V 12.27145 c 0,-3.4122619 -3.995345,-3.3024662 -3.995345,-0.403913 v 6.191909 H 7.7886463 c 0,-7.121529 -0.3239228,-8.156167 1.1504917,-9.7368958 0.8086069,-0.8426276 2.054949,-1.2916936 3.286455,-1.2611681 z"
     id="path2"
     style="fill:#ffffff;fill-opacity:1;stroke-width:1.14413" />
</svg>
