<?xml version="1.0" encoding="UTF-8" standalone="no"?>
<svg
   xmlns:dc="http://purl.org/dc/elements/1.1/"
   xmlns:cc="http://creativecommons.org/ns#"
   xmlns:rdf="http://www.w3.org/1999/02/22-rdf-syntax-ns#"
   xmlns:svg="http://www.w3.org/2000/svg"
   xmlns="http://www.w3.org/2000/svg"
   xmlns:sodipodi="http://sodipodi.sourceforge.net/DTD/sodipodi-0.dtd"
   xmlns:inkscape="http://www.inkscape.org/namespaces/inkscape"
   version="1.1"
   x="0px"
   y="0px"
   viewBox="0 0 1000 1000"
   enable-background="new 0 0 1000 1000"
   xml:space="preserve"
   id="svg48"
   sodipodi:docname="reddit.svg"
   inkscape:version="1.0.1 (3bc2e813f5, 2020-09-07)"><defs
   id="defs52" /><sodipodi:namedview
   pagecolor="#ffffff"
   bordercolor="#666666"
   borderopacity="1"
   objecttolerance="10"
   gridtolerance="10"
   guidetolerance="10"
   inkscape:pageopacity="0"
   inkscape:pageshadow="2"
   inkscape:window-width="1912"
   inkscape:window-height="1008"
   id="namedview50"
   showgrid="false"
   inkscape:zoom="0.762"
   inkscape:cx="118.76641"
   inkscape:cy="500"
   inkscape:window-x="4"
   inkscape:window-y="31"
   inkscape:window-maximized="0"
   inkscape:current-layer="svg48"
   inkscape:document-rotation="0" />
<metadata
   id="metadata2"> Svg Vector Icons : http://www.onlinewebfonts.com/icon <rdf:RDF><cc:Work
     rdf:about=""><dc:format>image/svg+xml</dc:format><dc:type
       rdf:resource="http://purl.org/dc/dcmitype/StillImage" /></cc:Work></rdf:RDF></metadata>
<g
   id="g46"
   style="stroke:#fcffff;stroke-opacity:1;stroke-width:17.2;stroke-miterlimit:4;stroke-dasharray:none;fill:#ffffff;fill-opacity:1"><g
     id="g14"
     style="stroke:#fcffff;stroke-opacity:1;stroke-width:17.2;stroke-miterlimit:4;stroke-dasharray:none;fill:#ffffff;fill-opacity:1"><g
       id="g12"
       style="stroke:#fcffff;stroke-opacity:1;stroke-width:17.2;stroke-miterlimit:4;stroke-dasharray:none;fill:#ffffff;fill-opacity:1"><path
         d="M354.1,498c36.5,0,66,29.6,66,66c0,36.5-29.6,66-66,66c-36.5,0-66-29.5-66-66C288,527.5,317.6,498,354.1,498z"
         id="path4"
         style="stroke:#fcffff;stroke-opacity:1;stroke-width:17.2;stroke-miterlimit:4;stroke-dasharray:none;fill:#ffffff;fill-opacity:1" /><path
         d="M990,510.6c0-81.6-64.2-148-143.2-148c-27.7,0-53.4,8.4-75.3,22.4c-67.9-39.4-153.6-64-247.2-67.3l53.9-154.8L690,189.7c-0.4,3.7-1.1,7.2-1.1,11c0,61.6,50.1,111.7,111.7,111.7c61.5,0,111.7-50.1,111.7-111.7c0-61.6-50.2-111.7-111.7-111.7c-40.2,0-75.1,21.4-94.8,53.3l-159.7-38.2L471.6,318c-93.1,4.8-177.9,30.8-244.5,71.2c1.3-0.9,2.5-2,3.8-2.9c-22.4-15-49-23.8-77.7-23.8c-79,0-143.2,66.3-143.2,148c0,54.6,29,101.9,71.8,127.5c17.5,152.6,199.4,273,420.8,273c222.9,0,405.7-122,421.1-276C963.5,608.8,990,562.9,990,510.6z M800.5,138.8c34.1,0,61.9,27.8,61.9,62c0,34.1-27.8,61.9-61.9,61.9c-34.3,0-62-27.8-62-61.9C738.5,166.6,766.3,138.8,800.5,138.8z M153.1,412.3c11.3,0,21.9,2.5,31.9,6.3c-54,43.3-90.4,97.7-101.3,157.7c-14.9-17.4-24.2-40.4-24.2-65.7C59.6,456.4,101.6,412.3,153.1,412.3z M502.6,861.4c-205.6,0-372.9-111-372.9-247.3c0-136.4,167.2-247.3,372.9-247.3c205.6,0,372.8,111,372.8,247.3C875.4,750.4,708.2,861.4,502.6,861.4z M920.2,570.9c-12.2-58.4-48.4-111.2-101.6-153.4c8.9-3,18.4-5.1,28.2-5.1c51.6,0,93.5,44.1,93.5,98.3C940.2,533.4,932.6,554.2,920.2,570.9z"
         id="path6"
         style="stroke:#fcffff;stroke-opacity:1;stroke-width:17.2;stroke-miterlimit:4;stroke-dasharray:none;fill:#ffffff;fill-opacity:1" /><path
         d="M638,498c36.5,0,66,29.6,66,66c0,36.5-29.5,66-66,66c-36.5,0-66.1-29.5-66.1-66C572,527.5,601.5,498,638,498z"
         id="path8"
         style="stroke:#fcffff;stroke-opacity:1;stroke-width:17.2;stroke-miterlimit:4;stroke-dasharray:none;fill:#ffffff;fill-opacity:1" /><path
         d="M627.4,710.8c-139.9,92.4-252.7,5.3-257.8,1.4c-10.7-8.6-26.3-6.9-34.9,3.8c-8.6,10.8-7,26.4,3.7,34.9c0.9,0.8,65.4,51.5,159,51.5c46.6,0,100.4-12.6,157.2-50.1c11.5-7.6,14.6-23,7.1-34.4C654.2,706.4,638.8,703.2,627.4,710.8z"
         id="path10"
         style="stroke:#fcffff;stroke-opacity:1;stroke-width:17.2;stroke-miterlimit:4;stroke-dasharray:none;fill:#ffffff;fill-opacity:1" /></g></g><g
     id="g16"
     style="stroke:#fcffff;stroke-opacity:1;stroke-width:17.2;stroke-miterlimit:4;stroke-dasharray:none;fill:#ffffff;fill-opacity:1" /><g
     id="g18"
     style="stroke:#fcffff;stroke-opacity:1;stroke-width:17.2;stroke-miterlimit:4;stroke-dasharray:none;fill:#ffffff;fill-opacity:1" /><g
     id="g20"
     style="stroke:#fcffff;stroke-opacity:1;stroke-width:17.2;stroke-miterlimit:4;stroke-dasharray:none;fill:#ffffff;fill-opacity:1" /><g
     id="g22"
     style="stroke:#fcffff;stroke-opacity:1;stroke-width:17.2;stroke-miterlimit:4;stroke-dasharray:none;fill:#ffffff;fill-opacity:1" /><g
     id="g24"
     style="stroke:#fcffff;stroke-opacity:1;stroke-width:17.2;stroke-miterlimit:4;stroke-dasharray:none;fill:#ffffff;fill-opacity:1" /><g
     id="g26"
     style="stroke:#fcffff;stroke-opacity:1;stroke-width:17.2;stroke-miterlimit:4;stroke-dasharray:none;fill:#ffffff;fill-opacity:1" /><g
     id="g28"
     style="stroke:#fcffff;stroke-opacity:1;stroke-width:17.2;stroke-miterlimit:4;stroke-dasharray:none;fill:#ffffff;fill-opacity:1" /><g
     id="g30"
     style="stroke:#fcffff;stroke-opacity:1;stroke-width:17.2;stroke-miterlimit:4;stroke-dasharray:none;fill:#ffffff;fill-opacity:1" /><g
     id="g32"
     style="stroke:#fcffff;stroke-opacity:1;stroke-width:17.2;stroke-miterlimit:4;stroke-dasharray:none;fill:#ffffff;fill-opacity:1" /><g
     id="g34"
     style="stroke:#fcffff;stroke-opacity:1;stroke-width:17.2;stroke-miterlimit:4;stroke-dasharray:none;fill:#ffffff;fill-opacity:1" /><g
     id="g36"
     style="stroke:#fcffff;stroke-opacity:1;stroke-width:17.2;stroke-miterlimit:4;stroke-dasharray:none;fill:#ffffff;fill-opacity:1" /><g
     id="g38"
     style="stroke:#fcffff;stroke-opacity:1;stroke-width:17.2;stroke-miterlimit:4;stroke-dasharray:none;fill:#ffffff;fill-opacity:1" /><g
     id="g40"
     style="stroke:#fcffff;stroke-opacity:1;stroke-width:17.2;stroke-miterlimit:4;stroke-dasharray:none;fill:#ffffff;fill-opacity:1" /><g
     id="g42"
     style="stroke:#fcffff;stroke-opacity:1;stroke-width:17.2;stroke-miterlimit:4;stroke-dasharray:none;fill:#ffffff;fill-opacity:1" /><g
     id="g44"
     style="stroke:#fcffff;stroke-opacity:1;stroke-width:17.2;stroke-miterlimit:4;stroke-dasharray:none;fill:#ffffff;fill-opacity:1" /></g>
</svg>
