<?xml version="1.0" encoding="UTF-8" standalone="no"?>
<svg
   xmlns:dc="http://purl.org/dc/elements/1.1/"
   xmlns:cc="http://creativecommons.org/ns#"
   xmlns:rdf="http://www.w3.org/1999/02/22-rdf-syntax-ns#"
   xmlns:svg="http://www.w3.org/2000/svg"
   xmlns="http://www.w3.org/2000/svg"
   xmlns:sodipodi="http://sodipodi.sourceforge.net/DTD/sodipodi-0.dtd"
   xmlns:inkscape="http://www.inkscape.org/namespaces/inkscape"
   version="1.1"
   id="Layer_1"
   x="0px"
   y="0px"
   viewBox="0 0 19.9 17.9"
   style="enable-background:new 0 0 19.9 17.9;"
   xml:space="preserve"
   sodipodi:docname="webring.svg"
   inkscape:version="1.0.1 (3bc2e813f5, 2020-09-07)"><metadata
   id="metadata29"><rdf:RDF><cc:Work
       rdf:about=""><dc:format>image/svg+xml</dc:format><dc:type
         rdf:resource="http://purl.org/dc/dcmitype/StillImage" /></cc:Work></rdf:RDF></metadata><defs
   id="defs27" /><sodipodi:namedview
   pagecolor="#ffffff"
   bordercolor="#666666"
   borderopacity="1"
   objecttolerance="10"
   gridtolerance="10"
   guidetolerance="10"
   inkscape:pageopacity="0"
   inkscape:pageshadow="2"
   inkscape:window-width="1912"
   inkscape:window-height="1008"
   id="namedview25"
   showgrid="false"
   inkscape:zoom="42.569833"
   inkscape:cx="1.9748686"
   inkscape:cy="11.448252"
   inkscape:window-x="4"
   inkscape:window-y="31"
   inkscape:window-maximized="0"
   inkscape:current-layer="Layer_1"
   inkscape:document-rotation="0" />
<style
   type="text/css"
   id="style2">
	.st0{fill:#D6F4F4;}
</style>
<g
   transform="translate(0,30)"
   id="g22"
   style="stroke:#000000;stroke-opacity:1;fill:#ffffff;fill-opacity:1;stroke-width:0;stroke-miterlimit:4;stroke-dasharray:none">
	<g
   transform="translate(150,150),rotate(120,0,0)"
   id="g8"
   style="stroke:#000000;stroke-opacity:1;fill:#ffffff;fill-opacity:1;stroke-width:0;stroke-miterlimit:4;stroke-dasharray:none">
		<g
   id="g6"
   style="stroke:#000000;stroke-opacity:1;fill:#ffffff;fill-opacity:1;stroke-width:0;stroke-miterlimit:4;stroke-dasharray:none">
			<path
   class="st0"
   d="M-66.4,209.2v2.4l-9.6,0c-1.7,0-3.2-0.7-4.4-1.8c-1.2-1.2-1.8-2.8-1.8-4.4c0-1.7,0.7-3.2,1.8-4.4     c1.2-1.2,2.8-1.8,4.4-1.8h1.2v2.4h-1.2c-2.1,0-3.9,1.7-3.9,3.9c0,1,0.4,2,1.1,2.7c0.7,0.7,1.7,1.1,2.7,1.1H-66.4z"
   id="path4"
   style="stroke:#000000;stroke-opacity:1;fill:#ffffff;fill-opacity:1;stroke-width:0;stroke-miterlimit:4;stroke-dasharray:none" />
		</g>
	</g>
	<g
   transform="translate(150,150),rotate(240,0,0)"
   id="g14"
   style="stroke:#000000;stroke-opacity:1;fill:#ffffff;fill-opacity:1;stroke-width:0;stroke-miterlimit:4;stroke-dasharray:none">
		<g
   id="g12"
   style="stroke:#000000;stroke-opacity:1;fill:#ffffff;fill-opacity:1;stroke-width:0;stroke-miterlimit:4;stroke-dasharray:none">
			<path
   class="st0"
   d="M210.4-39.9c0.3-0.5,0.6-0.9,1-1.3c1.2-1.2,2.8-1.8,4.4-1.8h1.2v2.4h-1.2c-2.1,0-3.9,1.7-3.9,3.9     c0,2.1,1.7,3.9,3.9,3.9l9.6,0v2.4l-9.6,0c-3.4,0-6.3-2.8-6.3-6.3C209.6-37.9,209.9-39,210.4-39.9z"
   id="path10"
   style="stroke:#000000;stroke-opacity:1;fill:#ffffff;fill-opacity:1;stroke-width:0;stroke-miterlimit:4;stroke-dasharray:none" />
		</g>
	</g>
	<g
   transform="translate(150,150),rotate(0,0,0)"
   id="g20"
   style="stroke:#000000;stroke-opacity:1;fill:#ffffff;fill-opacity:1;stroke-width:0;stroke-miterlimit:4;stroke-dasharray:none">
		<g
   id="g18"
   style="stroke:#000000;stroke-opacity:1;fill:#ffffff;fill-opacity:1;stroke-width:0;stroke-miterlimit:4;stroke-dasharray:none">
			<path
   class="st0"
   d="M-130.1-162.3h-9.6c-3.4,0-6.3-2.8-6.3-6.3c0-3.4,2.8-6.3,6.3-6.3h1.2v2.4h-1.2c-2.1,0-3.9,1.7-3.9,3.9     c0,2.1,1.7,3.9,3.9,3.9h9.6V-162.3z"
   id="path16"
   style="stroke:#000000;stroke-opacity:1;fill:#ffffff;fill-opacity:1;stroke-width:0;stroke-miterlimit:4;stroke-dasharray:none" />
		</g>
	</g>
</g>
</svg>
